<svg width="80" height="80" viewBox="0 0 80 80" fill="none" xmlns="http://www.w3.org/2000/svg">
<path d="M0 65.0053V15.0006L0.312689 14.9053C0.403369 15.1304 0.625379 15.1695 0.812992 15.2414C5.31885 16.9349 9.8247 18.6268 14.3306 20.3172C21.7621 23.106 29.1937 25.8901 36.6253 28.6695C37.7901 29.1026 38.9079 29.695 40.1649 29.8607C39.9492 30.2203 40.0086 30.6205 40.0086 31.005C40.0086 43.44 40.0086 55.875 40.0086 68.31C40.0086 71.8742 40.0086 75.4383 40.0086 79.0025C40.0086 79.3152 40.154 79.7091 39.6959 79.8592C39.5958 79.831 39.4942 79.8076 39.3989 79.7716L0 65.0053ZM20.0121 65.1726C20.0121 63.6094 19.9808 62.1337 20.0278 60.6595C20.0465 60.0483 19.898 59.7107 19.2757 59.5371C18.5784 59.3433 17.9124 59.0385 17.2307 58.7837L10.0014 56.0886C10.0014 57.6253 10.0405 59.0744 9.98417 60.522C9.95759 61.1988 10.1233 61.5678 10.8128 61.746C11.4616 61.9132 12.0792 62.215 12.7108 62.4447L20.0121 65.1726Z" fill="#FBE303"/>
<path d="M39.6821 79.8656C40.1512 79.7093 39.9948 79.3185 39.9948 79.009C40.0042 75.4448 40.0042 71.8806 39.9948 68.3165C39.9948 55.8825 39.9948 43.4475 39.9948 31.0115C39.9948 30.6269 39.9276 30.2298 40.1512 29.8672C43.1467 28.7588 46.1485 27.6708 49.1332 26.5359C50.9999 25.8262 52.9073 25.2244 54.7178 24.3709C55.2072 24.5272 54.9914 24.9383 54.993 25.2306C55.0065 30.4414 55.0096 35.6491 55.0023 40.8536V41.8181C55.1273 41.8088 55.2513 41.7889 55.3729 41.7587C58.42 40.6207 61.4703 39.4686 64.5159 38.3462C64.9631 38.182 65.0084 37.9022 65.0084 37.5083C64.999 31.8806 64.9943 26.2566 64.9943 20.6363C65.1835 20.5487 65.368 20.4471 65.5619 20.3752C69.8978 18.7495 74.2327 17.1227 78.5666 15.4948C78.9622 15.3385 79.4484 15.3385 79.6876 14.8867L80.0003 15.0071V65.0055C69.4345 68.9657 58.8687 72.9259 48.303 76.8861C45.5794 77.91 42.8684 78.9621 40.1512 80.0001H39.6821C39.6995 79.9569 39.6995 79.9087 39.6821 79.8656Z" fill="#FCEC41"/>
<path d="M54.7238 24.3708C52.9133 25.2243 51.0059 25.8262 49.1392 26.5359C46.1546 27.6645 43.1528 28.7479 40.1603 29.8609C38.9096 29.6952 37.7854 29.1027 36.6207 28.6697C29.1828 25.908 21.7502 23.1239 14.3228 20.3173C9.81694 18.628 5.31109 16.9361 0.805235 15.2415C0.612931 15.1696 0.395612 15.1305 0.304932 14.9054C0.473784 14.8351 0.637946 14.76 0.808362 14.696C10.9666 10.8879 21.1233 7.07832 31.2784 3.26716C34.141 2.19634 36.9928 1.09114 39.8476 0H40.1603C40.3933 0.1063 40.6294 0.226669 40.8607 0.312647L79.6936 14.8804C79.4544 15.3291 78.9682 15.34 78.5726 15.4885C74.2408 17.1237 69.9059 18.7505 65.5679 20.3689C65.374 20.4408 65.1895 20.5424 65.0004 20.63C60.249 18.5071 55.4915 16.3952 50.7495 14.252C50.5234 14.135 50.2728 14.0731 50.0182 14.0715C49.7636 14.0699 49.5122 14.1285 49.2846 14.2426C47.4085 15.0774 45.5026 15.8559 43.6124 16.6609C42.4601 17.1518 41.3141 17.652 40.0634 18.1913C40.2901 18.3133 40.3761 18.3695 40.4699 18.4086C44.0549 19.8843 47.6477 21.3428 51.2233 22.8435C52.3959 23.3344 53.6185 23.7158 54.7238 24.3708Z" fill="#F1D900"/>
<path d="M20.0047 65.1713L12.7112 62.445C12.0859 62.2089 11.4605 61.9135 10.8132 61.7462C10.1237 61.568 9.95801 61.1991 9.98459 60.5222C10.0409 59.0746 10.0018 57.6255 10.0018 56.0889L17.2233 58.7839C17.905 59.0387 18.571 59.3435 19.2683 59.5374C19.8937 59.7109 20.0391 60.0485 20.0204 60.6598C19.9734 62.1339 20.0047 63.608 20.0047 65.1713Z" fill="#454950"/>
<path d="M54.7234 24.3707C53.6181 23.722 52.3955 23.3406 51.2229 22.8497C47.6473 21.349 44.0545 19.8905 40.4695 18.4148C40.3757 18.3757 40.2897 18.3195 40.063 18.1975C41.3137 17.6582 42.4597 17.158 43.612 16.6671C45.5022 15.8621 47.4065 15.0836 49.2842 14.2488C49.5118 14.1347 49.7632 14.076 50.0178 14.0777C50.2724 14.0793 50.523 14.1412 50.7491 14.2582C55.4911 16.4014 60.2486 18.5133 65 20.6362C65 26.2638 65.0047 31.8878 65.014 37.5081C65.014 37.9021 64.9687 38.1819 64.5215 38.346C61.4681 39.4684 58.4241 40.6205 55.3785 41.7586C55.2569 41.7888 55.1329 41.8086 55.008 41.818V40.8472C55.008 35.6364 55.0048 30.4288 54.9986 25.2243C54.997 24.9319 55.2128 24.5271 54.7234 24.3707Z" fill="#454950"/>
</svg>
