<svg width="80" height="80" viewBox="0 0 80 80" fill="none" xmlns="http://www.w3.org/2000/svg">
<path d="M0.0187988 74.3563C0.915674 72.1485 1.5813 69.8594 2.33755 67.6016C4.87401 60.0443 7.39432 52.4813 9.89849 44.9125C10.5469 42.9688 11.2063 42.5 13.2672 42.5C14.3079 42.5 15.35 42.5266 16.3922 42.4891C16.8938 42.4719 17.1735 42.6094 17.4157 43.0844C21.8313 51.6078 27.8125 58.9219 34.8438 65.411C37.8829 68.2235 42.2032 68.1531 45.2235 65.3531C51.6375 59.4156 57.1547 52.7438 61.4985 45.1344C61.8969 44.4344 62.2797 43.7281 62.6266 42.9969C62.8079 42.611 63.0344 42.475 63.461 42.486C64.6829 42.5156 65.9063 42.486 67.1297 42.4969C68.6657 42.4969 69.4875 43.086 69.9797 44.5453C71.0313 47.6703 72.0672 50.7953 73.1047 53.9313C75.3058 60.5334 77.5073 67.1349 79.7094 73.736C79.7797 73.9453 79.7657 74.2047 79.986 74.361V75.7672C79.1688 77.275 77.8407 77.5219 76.2454 77.511C68.1829 77.4563 60.1204 77.486 52.0563 77.486C35.723 77.486 19.3896 77.486 3.0563 77.486C2.19536 77.486 1.38599 77.3875 0.765674 76.7297C0.500281 76.4203 0.250993 76.0975 0.0187988 75.7625V74.3563Z" fill="#FBE303"/>
<path d="M62.5008 25.2112C62.4243 28.757 61.7427 32.2637 60.4852 35.5799C57.5961 43.3627 52.8977 49.9908 47.3774 56.094C45.6616 58.017 43.8489 59.8511 41.9461 61.5893C40.6149 62.7877 39.3899 62.8096 38.0852 61.5987C31.8867 55.8424 26.4914 49.4362 22.4258 41.983C20.0961 37.7112 18.4024 33.2112 17.7133 28.3565C16.1539 17.3971 22.8133 6.78459 33.3446 3.52521C44.7508 0.000214338 57.0039 6.07053 61.0946 17.2768C62.0321 19.8221 62.4524 22.4455 62.5008 25.2112ZM40.0008 35.0002C41.9801 35.0036 43.916 34.4195 45.5631 33.322C47.2103 32.2244 48.4947 30.6627 49.2536 28.8346C50.0126 27.0066 50.212 24.9944 49.8266 23.053C49.4411 21.1115 48.4882 19.3281 47.0885 17.9286C45.6888 16.5291 43.9052 15.5765 41.9637 15.1913C40.0222 14.8062 38.0101 15.0059 36.1821 15.7652C34.3542 16.5244 32.7927 17.8091 31.6954 19.4564C30.5981 21.1037 30.0143 23.0396 30.018 25.019C30.0258 27.664 31.0802 30.1985 32.9506 32.0687C34.8211 33.9389 37.3558 34.9928 40.0008 35.0002Z" fill="#454950"/>
<path d="M39.9999 35C38.0205 35 36.0856 34.4125 34.4404 33.3121C32.7951 32.2116 31.5134 30.6476 30.7576 28.8181C30.0018 26.9887 29.806 24.9761 30.1949 23.0353C30.5838 21.0944 31.54 19.3127 32.9422 17.9157C34.3445 16.5186 36.1298 15.5692 38.0721 15.1876C40.0144 14.806 42.0262 15.0094 43.8528 15.772C45.6794 16.5346 47.2386 17.8222 48.3329 19.4716C49.4272 21.121 50.0074 23.0581 49.9999 25.0375C49.9867 27.6821 48.9277 30.2142 47.0542 32.0807C45.1806 33.9473 42.6446 34.9967 39.9999 35Z" fill="#FEFEFE"/>
</svg>
