<svg width="80" height="80" viewBox="0 0 80 80" fill="none" xmlns="http://www.w3.org/2000/svg">
<path d="M79.986 15.011C79.5453 16.2938 79.5485 17.6485 79.375 18.972C78.7406 23.8157 78.1516 28.6595 77.5453 33.5032C77.2172 36.1329 76.8781 38.761 76.5625 41.3939C76.3891 42.8407 75.9828 43.3376 74.5656 43.5313C70.525 44.086 66.4797 44.6095 62.436 45.1485C57.5172 45.8048 52.599 46.4626 47.6813 47.122C42.4261 47.822 37.1719 48.5199 31.9188 49.2157C29.3453 49.5595 26.7735 49.9251 24.2016 50.2798C23.1953 49.1189 22.8032 47.697 22.511 46.2392C20.861 38.0235 19.2172 29.8069 17.5797 21.5892C16.9547 18.4642 16.3547 15.3267 15.7438 12.1954C15.8485 12.1954 15.9516 12.186 16.0563 12.186C36.6625 12.1871 57.2683 12.1876 77.8735 12.1876C78.886 12.1876 79.5532 12.5829 79.986 13.4579V15.011ZM31.2625 41.4673C31.2547 41.3923 31.2438 41.1829 31.211 40.9782C30.5943 37.2657 29.9755 33.5532 29.3547 29.8407C28.8485 26.8188 28.3531 23.797 27.8188 20.7782C27.5813 19.4313 26.2563 18.7985 25.1844 19.472C24.5235 19.8923 24.2781 20.6313 24.4422 21.6095C25.1089 25.5782 25.7714 29.547 26.4297 33.5157C26.8901 36.2813 27.3552 39.0465 27.825 41.811C28.0141 42.9142 28.775 43.5454 29.7438 43.4439C30.6563 43.3501 31.2719 42.6032 31.2625 41.4673ZM39.986 39.7813C39.4875 34.3126 39.0047 28.922 38.5032 23.5392C38.4047 22.4813 38.4219 21.4063 38.1375 20.3735C38.0481 20.0161 37.8376 19.7007 37.542 19.4808C37.2463 19.2609 36.8837 19.1501 36.5156 19.1673C35.7672 19.1673 35.2328 19.5438 34.9313 20.2251C34.7578 20.6188 34.8 21.0423 34.836 21.4563C35.1063 24.5626 35.375 27.6688 35.6594 30.7735C35.9406 33.8532 36.2203 36.9329 36.5375 40.0079C36.6531 41.1282 37.4375 41.8017 38.3766 41.7157C39.386 41.622 40.0156 40.8267 39.986 39.7813ZM45.1985 29.5313C45.1985 32.3438 45.1844 35.1563 45.1985 37.9563C45.2078 39.1657 45.9125 39.9595 46.9094 39.9876C47.9328 40.0157 48.6547 39.2063 48.7 37.9563C48.7 37.7751 48.7 37.5923 48.7 37.411V28.1251C48.7 25.836 48.7 23.5485 48.7 21.2595C48.7 20.1313 48.2203 19.4313 47.3688 19.2282C46.1375 18.9313 45.2063 19.7813 45.1985 21.2595C45.1875 24.0188 45.1985 26.7751 45.1985 29.5313ZM59.0625 21.4563C59.1188 20.036 58.5641 19.2688 57.5719 19.1642C56.5625 19.0626 55.7516 19.7798 55.625 20.9376C55.0573 25.9688 54.4943 31.0006 53.936 36.0329C53.8 37.2532 54.4422 38.147 55.4844 38.2548C56.436 38.3548 57.225 37.6657 57.3766 36.4985C57.6281 34.5673 57.8297 32.6313 58.0453 30.6954C58.3938 27.5517 58.7406 24.4032 59.0625 21.4563ZM69.5547 21.0251C69.5321 20.7891 69.4945 20.5548 69.4422 20.3235C69.3353 19.9751 69.1191 19.6704 68.8256 19.4543C68.5322 19.2382 68.177 19.1222 67.8125 19.1235C66.9641 19.136 66.3438 19.6548 66.0938 20.6485C64.9563 25.1485 63.8281 29.6506 62.7094 34.1548C62.568 34.6071 62.6009 35.0958 62.8016 35.5251C62.9481 35.8482 63.1936 36.1162 63.5026 36.2904C63.8117 36.4645 64.1681 36.5358 64.5203 36.4938C65.3125 36.436 65.8547 35.9032 66.0828 34.9829C66.9266 31.6392 67.763 28.2933 68.5922 24.9454C68.9172 23.6142 69.2469 22.2813 69.5594 21.0251H69.5547Z" fill="#FBE303"/>
<path d="M0.0140381 2.82819C0.729663 1.81413 1.75623 1.71257 2.89685 1.73444C5.83591 1.77976 8.77654 1.74694 11.7156 1.75007C13.1359 1.75007 13.6687 2.17819 13.9656 3.59226C14.5672 6.45788 15.1562 9.33132 15.7437 12.2016C16.3547 15.3266 16.9562 18.4673 17.5797 21.5954C19.2172 29.8141 20.8609 38.0308 22.5109 46.2454C22.8031 47.7032 23.1953 49.1251 24.2015 50.286C25.975 52.8173 28.489 53.8891 31.4969 53.8969C38.7562 53.9157 46.0156 53.8969 53.275 53.8969C59.1562 53.8969 65.037 53.8969 70.9172 53.8969C72.239 53.8969 73.025 54.5907 72.9968 55.6923C72.9921 56.0856 72.8482 56.4645 72.5908 56.7619C72.3335 57.0593 71.9791 57.256 71.5906 57.3173C71.3074 57.3551 71.0216 57.3702 70.7359 57.3626C57.6734 57.3626 44.6109 57.3626 31.5484 57.3626C25.7281 57.3626 20.9234 53.8735 19.4797 48.5016C18.8547 46.1469 18.4609 43.7282 17.9812 41.3344C15.7104 30.0074 13.4422 18.6772 11.1765 7.34382C11.039 6.65788 11.0859 5.74694 10.6625 5.35788C10.1937 4.92507 9.27029 5.23444 8.54529 5.22819C6.56873 5.21101 4.58904 5.18444 2.60779 5.22819C1.5281 5.26569 0.612476 5.07038 0.0140381 4.07819V2.82819Z" fill="#454950"/>
<path d="M20.8953 69.575C20.8929 68.4344 21.1153 67.3044 21.5496 66.2497C21.9839 65.195 22.6217 64.2361 23.4266 63.4279C25.0522 61.7956 27.2596 60.8759 29.5633 60.8711C31.8669 60.8663 34.0781 61.7769 35.7104 63.4025C36.5186 64.2074 37.1604 65.1636 37.5991 66.2165C38.0378 67.2694 38.2648 68.3984 38.2672 69.5391C38.2719 71.8427 37.3614 74.0539 35.7358 75.6862C34.1103 77.3185 31.9028 78.2382 29.5992 78.243C27.2955 78.2478 25.0843 77.3372 23.452 75.7116C21.8197 74.0861 20.9 71.8787 20.8953 69.575Z" fill="#454950"/>
<path d="M73.0124 69.594C73.0074 71.3133 72.4924 72.9924 71.5326 74.4188C70.5728 75.8452 69.2113 76.9548 67.6205 77.607C66.0298 78.2592 64.2812 78.4247 62.5963 78.0826C60.9114 77.7405 59.3659 76.9062 58.1555 75.6852C56.945 74.4643 56.1241 72.9116 55.7965 71.2238C55.469 69.536 55.6497 67.789 56.3156 66.2039C56.9815 64.6188 58.1028 63.267 59.5375 62.3195C60.9721 61.3721 62.6557 60.8716 64.3749 60.8815C66.6741 60.8964 68.8738 61.8214 70.4926 63.4543C72.1114 65.0871 73.0174 67.2947 73.0124 69.594Z" fill="#454950"/>
</svg>
