<svg width="180" height="46" viewBox="0 0 180 46" fill="none" xmlns="http://www.w3.org/2000/svg">
<rect x="1.78815" y="7.15283" width="35.7645" height="35.7645" rx="5.96074" fill="#FCEC41"/>
<rect y="8.94092" width="35.7645" height="35.7645" rx="5.96074" fill="#FBE303"/>
<path fill-rule="evenodd" clip-rule="evenodd" d="M14.9094 14.9897C14.8093 15.0383 14.6938 15.1534 14.6459 15.2524C14.5657 15.418 14.5741 15.5676 14.7863 17.7462C14.9104 19.0209 15.011 20.1182 15.0098 20.1845C14.9982 20.8533 13.9908 20.9745 13.789 20.3314C13.7609 20.2419 13.6866 19.6144 13.6238 18.937C13.561 18.2595 13.4996 17.674 13.4873 17.6359C13.4587 17.5478 12.8509 17.8697 12.1074 18.3666C10.6321 19.3526 9.45079 20.71 8.66859 22.3178C8.37461 22.9222 8.03189 23.907 7.89783 24.5324L7.80518 24.9649H7.43462C6.90052 24.9649 6.67046 25.0485 6.35802 25.3562C5.98193 25.7267 5.87799 26.1185 6.02541 26.6099C6.11178 26.8979 6.55264 27.3321 6.84496 27.4172C7.01383 27.4663 9.54599 27.4809 17.8915 27.4809C30.1064 27.4809 29.0279 27.52 29.4458 27.0622C29.923 26.5394 29.923 25.9063 29.4458 25.3836C29.1653 25.0763 28.8706 24.9649 28.3385 24.9649H27.9579L27.8652 24.5324C27.4302 22.5024 26.2458 20.5043 24.6668 19.1369C23.8546 18.4335 22.3284 17.4747 22.276 17.635C22.2634 17.6736 22.2003 18.2713 22.1358 18.9632C22.0713 19.6551 21.9873 20.2973 21.9489 20.3904C21.868 20.587 21.5922 20.7711 21.378 20.7713C21.0561 20.7718 20.7586 20.4923 20.7532 20.1845C20.7521 20.1182 20.8528 19.0193 20.9771 17.7426C21.1997 15.4566 21.2017 15.4185 21.1054 15.2424C20.9157 14.8955 20.9655 14.9007 17.8735 14.9021C15.3937 14.9031 15.068 14.9128 14.9094 14.9897ZM8.96751 29.2066C8.30841 29.3652 7.79012 29.9256 7.68916 30.5888L7.65159 30.8356H6.93677C6.24876 30.8356 6.21704 30.8404 6.09134 30.9642C5.96176 31.0918 5.96069 31.101 5.96069 32.0936C5.96069 33.0861 5.96176 33.0953 6.09134 33.2229C6.21715 33.3468 6.24839 33.3516 6.94283 33.3516H7.66367V34.2655C7.66367 34.774 7.68842 35.2448 7.71944 35.3269C7.79374 35.5234 9.66552 37.3782 9.88382 37.4716C10.1362 37.5797 15.4056 37.5797 15.668 37.4717C15.854 37.3952 15.8712 37.3759 16.5239 36.5111C16.9853 35.8999 17.7628 35.0807 17.8815 35.0807C18.0003 35.0807 18.7778 35.8999 19.2391 36.5111C19.8918 37.3759 19.909 37.3952 20.095 37.4717C20.3575 37.5797 25.6269 37.5797 25.8792 37.4716C26.0975 37.3782 27.9693 35.5234 28.0436 35.3269C28.0746 35.2448 28.0994 34.774 28.0994 34.2655V33.3516H28.8202C29.5147 33.3516 29.5459 33.3468 29.6717 33.2229C29.8013 33.0953 29.8024 33.0861 29.8024 32.0936C29.8024 31.101 29.8013 31.0918 29.6717 30.9642C29.546 30.8404 29.5143 30.8356 28.8263 30.8356H28.1115L28.0738 30.5882C28.0315 30.3105 27.8527 29.9327 27.6527 29.6986C27.5795 29.6128 27.3686 29.462 27.1841 29.3635L26.8488 29.1844L17.988 29.1763C13.1145 29.1719 9.05532 29.1855 8.96751 29.2066ZM26.3964 32.761V34.6866L25.7986 35.277L25.2008 35.8676H23.0422H20.8836L20.5422 35.4089C20.3544 35.1567 19.9244 34.6772 19.5866 34.3435C18.4816 33.2517 17.8402 33.1038 16.8988 33.724C16.4468 34.0218 15.6925 34.7804 15.2142 35.4182L14.8773 35.8676H12.7215H10.5657L9.9662 35.2787L9.36665 34.6899V32.7627V30.8356H17.8815H26.3964V32.761Z" fill="#171B24"/>
<path fill-rule="evenodd" clip-rule="evenodd" d="M12.5175 7.15289C12.5175 3.20246 15.72 0 19.6704 0C23.6208 0 26.8233 3.20246 26.8233 7.15289H24.439C24.439 4.51927 22.304 2.3843 19.6704 2.3843C17.0368 2.3843 14.9018 4.51927 14.9018 7.15289H12.5175Z" fill="#FDF074"/>
<path fill-rule="evenodd" clip-rule="evenodd" d="M10.7294 8.94098C10.7294 4.99054 13.9318 1.78809 17.8823 1.78809H18.4783C22.4288 1.78809 25.6312 4.99054 25.6312 8.94098H23.2469C23.2469 6.30736 21.112 4.17238 18.4783 4.17238H17.8823C15.2486 4.17238 13.1137 6.30736 13.1137 8.94098H10.7294Z" fill="#FBE303"/>
<path d="M52.3711 32.7545C51.3998 32.7545 50.5571 32.6474 49.843 32.4332C49.1288 32.2189 48.529 31.919 48.0433 31.5333C47.572 31.1477 47.2078 30.6978 46.9507 30.1836C46.6936 29.6551 46.5365 29.0767 46.4794 28.4482H49.0503C49.1074 28.7482 49.2003 29.0195 49.3288 29.2623C49.4716 29.5052 49.6716 29.7194 49.9287 29.9051C50.1858 30.0908 50.5072 30.2336 50.8928 30.3336C51.2927 30.4335 51.7855 30.4835 52.3711 30.4835C52.971 30.4835 53.478 30.4335 53.8922 30.3336C54.3207 30.2193 54.6635 30.0765 54.9206 29.9051C55.1919 29.7194 55.3848 29.5052 55.499 29.2623C55.6276 29.0053 55.6918 28.7339 55.6918 28.4482C55.6918 27.7484 55.3633 27.2199 54.7063 26.8628C54.0636 26.5057 53.0566 26.1844 51.6855 25.8987C50.9142 25.7273 50.2286 25.5274 49.6288 25.2988C49.0289 25.056 48.529 24.7632 48.129 24.4204C47.7291 24.0634 47.422 23.642 47.2078 23.1564C47.0078 22.6565 46.9079 22.0638 46.9079 21.3782C46.9079 20.8212 47.0221 20.2927 47.2506 19.7928C47.4935 19.2929 47.8434 18.8573 48.3004 18.4859C48.7575 18.1145 49.3217 17.8217 49.993 17.6075C50.6785 17.3933 51.4712 17.2861 52.3711 17.2861C53.2423 17.2861 54.0065 17.3861 54.6635 17.5861C55.3205 17.786 55.8704 18.0717 56.3132 18.443C56.7702 18.8001 57.1201 19.2286 57.3629 19.7285C57.62 20.2284 57.7772 20.7783 57.8343 21.3782H55.2634C55.1491 20.8354 54.8563 20.3998 54.385 20.0713C53.9279 19.7285 53.2566 19.5571 52.3711 19.5571C51.3427 19.5571 50.6 19.7357 50.1429 20.0927C49.7002 20.4498 49.4788 20.8783 49.4788 21.3782C49.4788 22.0638 49.7644 22.5779 50.3358 22.9207C50.9071 23.2635 51.7855 23.5563 52.971 23.7991C53.8422 23.9848 54.6063 24.1991 55.2634 24.4419C55.9347 24.6847 56.4917 24.9918 56.9345 25.3631C57.3772 25.7202 57.7057 26.1487 57.92 26.6486C58.1485 27.1485 58.2628 27.7484 58.2628 28.4482C58.2628 29.0624 58.1414 29.6337 57.8986 30.1622C57.6557 30.6906 57.2844 31.1477 56.7845 31.5333C56.2989 31.919 55.6847 32.2189 54.942 32.4332C54.2136 32.6474 53.3566 32.7545 52.3711 32.7545Z" fill="white"/>
<path d="M65.1294 32.626C63.8297 32.626 62.8942 32.3475 62.3229 31.7904C61.7658 31.2334 61.4873 30.3336 61.4873 29.091V23.1778H59.8805V21.1639H61.4873V18.593H63.844V21.1639H66.7363V23.1778H63.844V28.7696C63.844 29.4409 63.9654 29.9122 64.2082 30.1836C64.4653 30.4407 64.9509 30.5692 65.6651 30.5692C66.0935 30.5692 66.522 30.5478 66.9505 30.505V32.5189C66.6791 32.5474 66.4006 32.5688 66.115 32.5831C65.8293 32.6117 65.5008 32.626 65.1294 32.626Z" fill="white"/>
<path d="M69.3156 21.1639H71.5008V23.0921C71.7294 22.5065 72.1007 21.9995 72.6149 21.571C73.1434 21.1425 73.7933 20.9283 74.5645 20.9283C74.9216 20.9283 75.1858 20.9426 75.3572 20.9711C75.5429 20.9997 75.6715 21.0283 75.7429 21.0568V23.1993C75.5001 23.1278 75.2787 23.0779 75.0787 23.0493C74.8788 23.0064 74.6359 22.985 74.3503 22.985C73.879 22.985 73.4719 23.0707 73.1291 23.2421C72.8006 23.3992 72.5292 23.6135 72.315 23.8848C72.1007 24.1419 71.9365 24.449 71.8222 24.8061C71.7222 25.1489 71.6722 25.5059 71.6722 25.8773V32.5189H69.3156V21.1639Z" fill="white"/>
<path d="M82.3819 32.7545C81.5964 32.7545 80.8608 32.6331 80.1752 32.3903C79.5039 32.1332 78.9183 31.7619 78.4184 31.2762C77.9185 30.7906 77.5257 30.1907 77.2401 29.4766C76.9544 28.7482 76.8116 27.9055 76.8116 26.9485V26.52C76.8116 25.6202 76.9544 24.8275 77.2401 24.1419C77.5257 23.4421 77.9185 22.8565 78.4184 22.3851C78.9183 21.8995 79.5039 21.5353 80.1752 21.2925C80.8608 21.0497 81.5964 20.9283 82.3819 20.9283C83.1675 20.9283 83.8959 21.0497 84.5672 21.2925C85.2528 21.5353 85.8455 21.8995 86.3454 22.3851C86.8453 22.8565 87.2381 23.4421 87.5238 24.1419C87.8094 24.8275 87.9522 25.6202 87.9522 26.52V26.9485C87.9522 27.9055 87.8094 28.7482 87.5238 29.4766C87.2381 30.1907 86.8453 30.7906 86.3454 31.2762C85.8455 31.7619 85.2528 32.1332 84.5672 32.3903C83.8959 32.6331 83.1675 32.7545 82.3819 32.7545ZM82.3819 30.6978C82.7961 30.6978 83.1889 30.6264 83.5603 30.4835C83.9459 30.3407 84.2815 30.1193 84.5672 29.8194C84.8671 29.5194 85.1028 29.1338 85.2742 28.6625C85.4599 28.1911 85.5527 27.6198 85.5527 26.9485V26.52C85.5527 25.9059 85.4599 25.3774 85.2742 24.9346C85.1028 24.4919 84.8671 24.1276 84.5672 23.842C84.2815 23.5563 83.9459 23.3421 83.5603 23.1993C83.1889 23.0564 82.7961 22.985 82.3819 22.985C81.9677 22.985 81.5678 23.0564 81.1821 23.1993C80.8108 23.3421 80.4751 23.5563 80.1752 23.842C79.8895 24.1276 79.6539 24.4919 79.4682 24.9346C79.2968 25.3774 79.2111 25.9059 79.2111 26.52V26.9485C79.2111 27.6198 79.2968 28.1911 79.4682 28.6625C79.6539 29.1338 79.8895 29.5194 80.1752 29.8194C80.4751 30.1193 80.8108 30.3407 81.1821 30.4835C81.5678 30.6264 81.9677 30.6978 82.3819 30.6978Z" fill="white"/>
<path d="M91.7032 37.0394C91.4889 37.0394 91.2747 37.018 91.0605 36.9751V34.9184C91.2747 34.9612 91.4889 34.9827 91.7032 34.9827C91.946 34.9827 92.146 34.9398 92.3031 34.8541C92.4745 34.7827 92.6244 34.647 92.753 34.447C92.8958 34.2614 93.0315 34.0114 93.16 33.6972C93.3029 33.383 93.46 32.9902 93.6314 32.5189L88.8109 21.1639H91.3818L94.8526 29.9479L97.9805 21.1639H100.38L95.9881 32.5189C95.6738 33.3187 95.381 34.0043 95.1097 34.5756C94.8383 35.1469 94.5383 35.6111 94.2098 35.9682C93.8956 36.3395 93.5385 36.6109 93.1386 36.7823C92.7387 36.9537 92.2602 37.0394 91.7032 37.0394Z" fill="white"/>
<path d="M102.31 17.5218H104.667V26.113L109.38 21.1639H112.165L107.58 25.9844L112.594 32.5189H109.766L106.016 27.4841L104.667 28.8553V32.5189H102.31V17.5218Z" fill="white"/>
<path d="M117.64 32.7545C117.026 32.7545 116.476 32.6688 115.99 32.4974C115.519 32.3118 115.119 32.0618 114.791 31.7476C114.462 31.4191 114.212 31.0406 114.041 30.6121C113.869 30.1836 113.784 29.7123 113.784 29.1981C113.784 28.0697 114.119 27.2342 114.791 26.6914C115.462 26.1344 116.447 25.8559 117.747 25.8559H121.282V25.2346C121.282 24.3776 121.089 23.792 120.704 23.4778C120.332 23.1493 119.74 22.985 118.926 22.985C118.197 22.985 117.661 23.0993 117.319 23.3278C116.976 23.5563 116.776 23.8706 116.719 24.2705H114.426C114.455 23.7849 114.576 23.3421 114.791 22.9422C115.019 22.528 115.326 22.1709 115.712 21.8709C116.112 21.571 116.59 21.3425 117.147 21.1854C117.704 21.014 118.333 20.9283 119.033 20.9283C119.732 20.9283 120.361 21.0068 120.918 21.1639C121.489 21.3211 121.975 21.571 122.375 21.9138C122.775 22.2423 123.082 22.6708 123.296 23.1993C123.525 23.7277 123.639 24.3633 123.639 25.106V29.6266C123.639 30.2264 123.646 30.7549 123.66 31.212C123.675 31.6547 123.71 32.0904 123.767 32.5189H121.625C121.582 32.1903 121.546 31.9118 121.518 31.6833C121.504 31.4548 121.496 31.1691 121.496 30.8263C121.225 31.3548 120.754 31.8118 120.082 32.1975C119.425 32.5688 118.611 32.7545 117.64 32.7545ZM118.283 30.6978C118.683 30.6978 119.061 30.6478 119.418 30.5478C119.79 30.4335 120.111 30.2764 120.382 30.0765C120.654 29.8622 120.868 29.6051 121.025 29.3052C121.196 28.991 121.282 28.6339 121.282 28.234V27.6127H118.176C117.576 27.6127 117.09 27.7412 116.719 27.9983C116.362 28.2554 116.183 28.6339 116.183 29.1338C116.183 29.6051 116.347 29.9836 116.676 30.2693C117.019 30.555 117.554 30.6978 118.283 30.6978Z" fill="white"/>
<path d="M132.106 32.7545C131.134 32.7545 130.292 32.6474 129.578 32.4332C128.863 32.2189 128.264 31.919 127.778 31.5333C127.307 31.1477 126.942 30.6978 126.685 30.1836C126.428 29.6551 126.271 29.0767 126.214 28.4482H128.785C128.842 28.7482 128.935 29.0195 129.063 29.2623C129.206 29.5052 129.406 29.7194 129.663 29.9051C129.92 30.0908 130.242 30.2336 130.627 30.3336C131.027 30.4335 131.52 30.4835 132.106 30.4835C132.706 30.4835 133.213 30.4335 133.627 30.3336C134.055 30.2193 134.398 30.0765 134.655 29.9051C134.927 29.7194 135.119 29.5052 135.234 29.2623C135.362 29.0053 135.426 28.7339 135.426 28.4482C135.426 27.7484 135.098 27.2199 134.441 26.8628C133.798 26.5057 132.791 26.1844 131.42 25.8987C130.649 25.7273 129.963 25.5274 129.363 25.2988C128.763 25.056 128.264 24.7632 127.864 24.4204C127.464 24.0634 127.157 23.642 126.942 23.1564C126.742 22.6565 126.642 22.0638 126.642 21.3782C126.642 20.8212 126.757 20.2927 126.985 19.7928C127.228 19.2929 127.578 18.8573 128.035 18.4859C128.492 18.1145 129.056 17.8217 129.728 17.6075C130.413 17.3933 131.206 17.2861 132.106 17.2861C132.977 17.2861 133.741 17.3861 134.398 17.5861C135.055 17.786 135.605 18.0717 136.048 18.443C136.505 18.8001 136.855 19.2286 137.098 19.7285C137.355 20.2284 137.512 20.7783 137.569 21.3782H134.998C134.884 20.8354 134.591 20.3998 134.12 20.0713C133.663 19.7285 132.991 19.5571 132.106 19.5571C131.077 19.5571 130.335 19.7357 129.878 20.0927C129.435 20.4498 129.213 20.8783 129.213 21.3782C129.213 22.0638 129.499 22.5779 130.07 22.9207C130.642 23.2635 131.52 23.5563 132.706 23.7991C133.577 23.9848 134.341 24.1991 134.998 24.4419C135.669 24.6847 136.226 24.9918 136.669 25.3631C137.112 25.7202 137.44 26.1487 137.655 26.6486C137.883 27.1485 137.997 27.7484 137.997 28.4482C137.997 29.0624 137.876 29.6337 137.633 30.1622C137.39 30.6906 137.019 31.1477 136.519 31.5333C136.033 31.919 135.419 32.2189 134.677 32.4332C133.948 32.6474 133.091 32.7545 132.106 32.7545Z" fill="white"/>
<path d="M144.864 32.626C143.564 32.626 142.629 32.3475 142.057 31.7904C141.5 31.2334 141.222 30.3336 141.222 29.091V23.1778H139.615V21.1639H141.222V18.593H143.579V21.1639H146.471V23.1778H143.579V28.7696C143.579 29.4409 143.7 29.9122 143.943 30.1836C144.2 30.4407 144.686 30.5692 145.4 30.5692C145.828 30.5692 146.257 30.5478 146.685 30.505V32.5189C146.414 32.5474 146.135 32.5688 145.85 32.5831C145.564 32.6117 145.235 32.626 144.864 32.626Z" fill="white"/>
<path d="M153.873 32.7545C153.088 32.7545 152.352 32.6331 151.666 32.3903C150.995 32.1332 150.41 31.7619 149.91 31.2762C149.41 30.7906 149.017 30.1907 148.731 29.4766C148.446 28.7482 148.303 27.9055 148.303 26.9485V26.52C148.303 25.6202 148.446 24.8275 148.731 24.1419C149.017 23.4421 149.41 22.8565 149.91 22.3851C150.41 21.8995 150.995 21.5353 151.666 21.2925C152.352 21.0497 153.088 20.9283 153.873 20.9283C154.659 20.9283 155.387 21.0497 156.058 21.2925C156.744 21.5353 157.337 21.8995 157.837 22.3851C158.337 22.8565 158.729 23.4421 159.015 24.1419C159.301 24.8275 159.443 25.6202 159.443 26.52V26.9485C159.443 27.9055 159.301 28.7482 159.015 29.4766C158.729 30.1907 158.337 30.7906 157.837 31.2762C157.337 31.7619 156.744 32.1332 156.058 32.3903C155.387 32.6331 154.659 32.7545 153.873 32.7545ZM153.873 30.6978C154.287 30.6978 154.68 30.6264 155.052 30.4835C155.437 30.3407 155.773 30.1193 156.058 29.8194C156.358 29.5194 156.594 29.1338 156.765 28.6625C156.951 28.1911 157.044 27.6198 157.044 26.9485V26.52C157.044 25.9059 156.951 25.3774 156.765 24.9346C156.594 24.4919 156.358 24.1276 156.058 23.842C155.773 23.5563 155.437 23.3421 155.052 23.1993C154.68 23.0564 154.287 22.985 153.873 22.985C153.459 22.985 153.059 23.0564 152.673 23.1993C152.302 23.3421 151.966 23.5563 151.666 23.842C151.381 24.1276 151.145 24.4919 150.959 24.9346C150.788 25.3774 150.702 25.9059 150.702 26.52V26.9485C150.702 27.6198 150.788 28.1911 150.959 28.6625C151.145 29.1338 151.381 29.5194 151.666 29.8194C151.966 30.1193 152.302 30.3407 152.673 30.4835C153.059 30.6264 153.459 30.6978 153.873 30.6978Z" fill="white"/>
<path d="M161.792 21.1639H163.977V23.0921C164.206 22.5065 164.577 21.9995 165.091 21.571C165.62 21.1425 166.27 20.9283 167.041 20.9283C167.398 20.9283 167.662 20.9426 167.833 20.9711C168.019 20.9997 168.148 21.0283 168.219 21.0568V23.1993C167.976 23.1278 167.755 23.0779 167.555 23.0493C167.355 23.0064 167.112 22.985 166.827 22.985C166.355 22.985 165.948 23.0707 165.605 23.2421C165.277 23.3992 165.005 23.6135 164.791 23.8848C164.577 24.1419 164.413 24.449 164.298 24.8061C164.198 25.1489 164.148 25.5059 164.148 25.8773V32.5189H161.792V21.1639Z" fill="white"/>
<path d="M174.858 32.7545C174.101 32.7545 173.387 32.6403 172.716 32.4117C172.044 32.1689 171.452 31.8118 170.938 31.3405C170.438 30.8549 170.038 30.2479 169.738 29.5194C169.438 28.791 169.288 27.934 169.288 26.9485V26.52C169.288 25.5774 169.431 24.7561 169.716 24.0562C170.002 23.3564 170.388 22.7779 170.873 22.3209C171.373 21.8495 171.944 21.4996 172.587 21.2711C173.23 21.0425 173.915 20.9283 174.644 20.9283C176.372 20.9283 177.693 21.3925 178.607 22.3209C179.536 23.2492 180 24.5776 180 26.3058V27.5056H171.687C171.702 28.0912 171.794 28.5911 171.966 29.0053C172.152 29.4052 172.387 29.7337 172.673 29.9908C172.973 30.2336 173.308 30.4121 173.68 30.5264C174.065 30.6407 174.458 30.6978 174.858 30.6978C175.672 30.6978 176.265 30.5692 176.636 30.3121C177.022 30.0551 177.286 29.7194 177.429 29.3052H179.786C179.557 30.4335 178.993 31.2905 178.093 31.8761C177.208 32.4617 176.129 32.7545 174.858 32.7545ZM174.751 22.985C174.351 22.985 173.965 23.035 173.594 23.135C173.237 23.235 172.916 23.3992 172.63 23.6277C172.359 23.842 172.137 24.1276 171.966 24.4847C171.794 24.8275 171.702 25.2489 171.687 25.7488H177.643C177.629 25.2203 177.543 24.7775 177.386 24.4204C177.243 24.0634 177.043 23.7777 176.786 23.5635C176.529 23.3492 176.222 23.1993 175.865 23.1136C175.522 23.0279 175.151 22.985 174.751 22.985Z" fill="white"/>
</svg>
