<svg width="46" height="36" viewBox="0 0 46 36" fill="none" xmlns="http://www.w3.org/2000/svg">
<path d="M29.3284 25.2125H16.9731V3.01416H29.3284V25.2125Z" fill="#8B8D92"/>
<path d="M17.7724 14.1138C17.7724 9.61473 19.8735 5.59527 23.1622 3.0146C20.7642 1.11905 17.7268 0 14.4381 0C6.65042 0 0.324341 6.32608 0.324341 14.1138C0.324341 21.9015 6.65042 28.2276 14.4381 28.2276C17.7268 28.2276 20.7642 27.1085 23.1622 25.213C19.8735 22.6323 17.7724 18.6128 17.7724 14.1138Z" fill="#BABBBE"/>
<path d="M46 14.1138C46 21.9015 39.6739 28.2276 31.8862 28.2276C28.5976 28.2276 25.5601 27.1085 23.1622 25.213C26.4508 22.6323 28.5519 18.6128 28.5519 14.1138C28.5519 9.61473 26.4508 5.59527 23.1622 3.0146C25.5601 1.11905 28.5976 0 31.8862 0C39.6739 0 46 6.32608 46 14.1138Z" fill="#74767C"/>
<path d="M33.5078 31.9044C33.6676 31.9044 33.9188 31.9273 34.0787 31.9958L33.8275 32.7723C33.6448 32.7038 33.4849 32.6809 33.3251 32.6809C32.7998 32.6809 32.5257 33.0235 32.5257 33.6401V35.7412H31.7036V31.9958H32.5029V32.4525C32.7313 32.11 33.051 31.9044 33.5078 31.9044ZM30.4932 32.7266H29.1686V34.4166C29.1686 34.782 29.3056 35.0332 29.7167 35.0332C29.9222 35.0332 30.1963 34.9647 30.4475 34.8277L30.6759 35.5356C30.4247 35.7183 30.0136 35.8325 29.6482 35.8325C28.689 35.8325 28.3464 35.3073 28.3464 34.4394V32.7266H27.5928V31.9729H28.3464V30.8311H29.1686V31.9729H30.4932V32.7266ZM20.0563 33.5259C20.1476 32.9778 20.4674 32.6124 21.0611 32.6124C21.5864 32.6124 21.929 32.9321 22.0203 33.5259H20.0563ZM22.8653 33.8685C22.8653 32.7038 22.1345 31.9044 21.084 31.9044C19.9878 31.9044 19.2113 32.7038 19.2113 33.8685C19.2113 35.0561 20.0106 35.8325 21.1297 35.8325C21.7006 35.8325 22.203 35.6955 22.6598 35.3073L22.2487 34.7135C21.929 34.9647 21.5407 35.1017 21.1525 35.1017C20.6272 35.1017 20.1476 34.8505 20.0334 34.1882H22.8197C22.8425 34.074 22.8653 33.9827 22.8653 33.8685ZM26.4509 32.955C26.2225 32.8179 25.7657 32.6352 25.2861 32.6352C24.8294 32.6352 24.5782 32.7951 24.5782 33.0692C24.5782 33.3204 24.8522 33.3889 25.2176 33.4346L25.6059 33.4802C26.428 33.5944 26.9076 33.937 26.9076 34.5993C26.9076 35.3073 26.291 35.8325 25.1948 35.8325C24.5782 35.8325 24.0072 35.6727 23.5733 35.3529L23.9615 34.7135C24.2356 34.919 24.6467 35.1017 25.2176 35.1017C25.7657 35.1017 26.0626 34.9419 26.0626 34.645C26.0626 34.4394 25.8571 34.3252 25.4003 34.2567L25.0121 34.2111C24.1671 34.0969 23.7103 33.7086 23.7103 33.1148C23.7103 32.3612 24.327 31.9044 25.2633 31.9044C25.8571 31.9044 26.4052 32.0415 26.7934 32.2927L26.4509 32.955ZM36.4995 32.6581C36.3397 32.6581 36.1798 32.6809 36.0428 32.7494C35.9057 32.8179 35.7687 32.8865 35.6774 33.0006C35.586 33.1148 35.4947 33.229 35.4261 33.3889C35.3576 33.5259 35.3348 33.7086 35.3348 33.8685C35.3348 34.0512 35.3576 34.2111 35.4261 34.3481C35.4947 34.4851 35.5632 34.6221 35.6774 34.7363C35.7915 34.8505 35.9057 34.919 36.0428 34.9875C36.1798 35.0561 36.3397 35.0789 36.4995 35.0789C36.6594 35.0789 36.8192 35.0561 36.9563 34.9875C37.0933 34.919 37.2303 34.8505 37.3217 34.7363C37.4359 34.6221 37.5044 34.5079 37.5729 34.3481C37.6414 34.2111 37.6642 34.0284 37.6642 33.8685C37.6642 33.6858 37.6414 33.5259 37.5729 33.3889C37.5044 33.2519 37.4359 33.1148 37.3217 33.0006C37.2075 32.8865 37.0933 32.8179 36.9563 32.7494C36.8192 32.7038 36.6594 32.6581 36.4995 32.6581ZM36.4995 31.9044C36.7964 31.9044 37.0705 31.9501 37.2988 32.0643C37.5501 32.1557 37.7556 32.2927 37.9383 32.4754C38.121 32.6581 38.258 32.8636 38.3722 33.092C38.4636 33.3432 38.5321 33.5944 38.5321 33.8685C38.5321 34.1425 38.4864 34.4166 38.3722 34.645C38.2809 34.8962 38.121 35.1017 37.9383 35.2616C37.7556 35.4443 37.5501 35.5813 37.2988 35.6727C37.0476 35.764 36.7736 35.8325 36.4995 35.8325C36.2026 35.8325 35.9286 35.7869 35.7002 35.6727C35.449 35.5813 35.2434 35.4443 35.0607 35.2616C34.878 35.0789 34.741 34.8733 34.6268 34.645C34.5355 34.3938 34.4669 34.1425 34.4669 33.8685C34.4669 33.5944 34.5126 33.3204 34.6268 33.092C34.7182 32.8408 34.878 32.6352 35.0607 32.4754C35.2434 32.2927 35.449 32.1557 35.7002 32.0643C35.9286 31.9501 36.2026 31.9044 36.4995 31.9044ZM15.306 33.8685C15.306 33.2062 15.7399 32.6581 16.4479 32.6581C17.133 32.6581 17.567 33.1834 17.567 33.8685C17.567 34.5536 17.1102 35.0561 16.4479 35.0561C15.7399 35.0561 15.306 34.5308 15.306 33.8685ZM18.3434 33.8685V31.9958H17.5213V32.4525C17.2701 32.11 16.8818 31.9044 16.3337 31.9044C15.2832 31.9044 14.461 32.7266 14.461 33.8685C14.461 35.0104 15.2832 35.8325 16.3337 35.8325C16.859 35.8325 17.2472 35.627 17.5213 35.2844V35.7412H18.3434V33.8685ZM13.753 35.7412V33.3889C13.753 32.4982 13.1821 31.9044 12.2686 31.9044C11.789 31.9044 11.2865 32.0415 10.944 32.5667C10.6928 32.1556 10.2817 31.9044 9.71074 31.9044C9.32249 31.9044 8.91141 32.0186 8.61452 32.4525V31.9958H7.79236V35.7412H8.61452V33.6629C8.61452 33.0235 8.97993 32.6581 9.52803 32.6581C10.0761 32.6581 10.3502 33.0006 10.3502 33.6401V35.7184H11.1724V33.6401C11.1724 33.0006 11.5606 32.6352 12.0859 32.6352C12.634 32.6352 12.908 32.9778 12.908 33.6173V35.6955H13.753V35.7412Z" fill="#A2A4A7"/>
</svg>
