<svg width="46" height="36" viewBox="0 0 46 36" fill="none" xmlns="http://www.w3.org/2000/svg">
<path d="M8.34772 35.7735V33.4193C8.34772 32.5188 7.79917 31.9291 6.8575 31.9291C6.38666 31.9291 5.87469 32.0845 5.5227 32.5965C5.24843 32.1668 4.8553 31.9291 4.26562 31.9291C3.87249 31.9291 3.47937 32.048 3.16852 32.4777V32.0068H2.3457V35.7735H3.16852V33.6936C3.16852 33.0262 3.52051 32.7108 4.06905 32.7108C4.6176 32.7108 4.89187 33.0628 4.89187 33.6936V35.7735H5.71469V33.6936C5.71469 33.0262 6.10782 32.7108 6.61523 32.7108C7.16377 32.7108 7.43805 33.0628 7.43805 33.6936V35.7735H8.34772ZM20.5529 32.0068H19.2181V30.8686H18.3953V32.0068H17.6502V32.7519H18.3953V34.4799C18.3953 35.3438 18.7473 35.8512 19.6889 35.8512C20.0409 35.8512 20.434 35.7324 20.7083 35.577L20.4706 34.8684C20.2329 35.0238 19.9586 35.065 19.7621 35.065C19.3689 35.065 19.2135 34.8273 19.2135 34.4387V32.7519H20.5483V32.0068H20.5529ZM27.5377 31.9245C27.0669 31.9245 26.7515 32.1622 26.5549 32.4731V32.0023H25.7321V35.7689H26.5549V33.6479C26.5549 33.0216 26.8292 32.6651 27.3412 32.6651C27.4966 32.6651 27.6931 32.7062 27.8531 32.7428L28.0908 31.9565C27.9263 31.9245 27.6931 31.9245 27.5377 31.9245ZM16.9828 32.3177C16.5896 32.0434 16.0411 31.9245 15.4514 31.9245C14.5097 31.9245 13.8835 32.3954 13.8835 33.1405C13.8835 33.7667 14.3543 34.1233 15.1771 34.2376L15.5703 34.2787C15.9999 34.3564 16.2377 34.4753 16.2377 34.6718C16.2377 34.9461 15.9222 35.1427 15.3737 35.1427C14.8251 35.1427 14.3909 34.9461 14.1166 34.7496L13.7235 35.3758C14.1532 35.6912 14.7429 35.8467 15.3325 35.8467C16.4296 35.8467 17.0605 35.3347 17.0605 34.6307C17.0605 33.9633 16.5485 33.6113 15.7668 33.4925L15.3737 33.4513C15.0217 33.4102 14.7474 33.3325 14.7474 33.0993C14.7474 32.8251 15.0217 32.6697 15.456 32.6697C15.9268 32.6697 16.3976 32.8662 16.6353 32.9851L16.9828 32.3177ZM38.8744 31.9245C38.4035 31.9245 38.0881 32.1622 37.8915 32.4731V32.0023H37.0687V35.7689H37.8915V33.6479C37.8915 33.0216 38.1658 32.6651 38.6778 32.6651C38.8332 32.6651 39.0298 32.7062 39.1898 32.7428L39.4275 31.9657C39.2675 31.9245 39.0343 31.9245 38.8744 31.9245ZM28.3605 33.8902C28.3605 35.0284 29.1468 35.8512 30.3627 35.8512C30.9113 35.8512 31.3044 35.7324 31.6975 35.4215L31.3044 34.7541C30.989 34.9918 30.6781 35.1061 30.3216 35.1061C29.6542 35.1061 29.1834 34.6353 29.1834 33.8902C29.1834 33.1816 29.6542 32.7108 30.3216 32.6742C30.6736 32.6742 30.989 32.7931 31.3044 33.0262L31.6975 32.3588C31.3044 32.0434 30.9113 31.9291 30.3627 31.9291C29.1468 31.9245 28.3605 32.7519 28.3605 33.8902ZM35.9716 33.8902V32.0068H35.1488V32.4777C34.8745 32.1257 34.4814 31.9291 33.9694 31.9291C32.9089 31.9291 32.0861 32.7519 32.0861 33.8902C32.0861 35.0284 32.9089 35.8512 33.9694 35.8512C34.518 35.8512 34.9111 35.6547 35.1488 35.3027V35.7735H35.9716V33.8902ZM32.95 33.8902C32.95 33.2228 33.3797 32.6742 34.0883 32.6742C34.7557 32.6742 35.2265 33.1862 35.2265 33.8902C35.2265 34.5576 34.7557 35.1061 34.0883 35.1061C33.3843 35.065 32.95 34.553 32.95 33.8902ZM23.1036 31.9245C22.0065 31.9245 21.2203 32.7108 21.2203 33.8856C21.2203 35.065 22.0065 35.8467 23.1448 35.8467C23.6933 35.8467 24.2419 35.6912 24.6761 35.3347L24.283 34.745C23.9676 34.9827 23.5745 35.1381 23.1859 35.1381C22.6739 35.1381 22.1665 34.9004 22.0477 34.2376H24.8316C24.8316 34.1187 24.8316 34.041 24.8316 33.9222C24.8681 32.7108 24.1596 31.9245 23.1036 31.9245ZM23.1036 32.6331C23.6156 32.6331 23.9676 32.9485 24.0453 33.5336H22.0842C22.162 33.0262 22.5139 32.6331 23.1036 32.6331ZM43.5461 33.8902V30.5166H42.7233V32.4777C42.449 32.1257 42.0559 31.9291 41.5439 31.9291C40.4834 31.9291 39.6606 32.7519 39.6606 33.8902C39.6606 35.0284 40.4834 35.8512 41.5439 35.8512C42.0925 35.8512 42.4856 35.6547 42.7233 35.3027V35.7735H43.5461V33.8902ZM40.5246 33.8902C40.5246 33.2228 40.9543 32.6742 41.6628 32.6742C42.3302 32.6742 42.801 33.1862 42.801 33.8902C42.801 34.5576 42.3302 35.1061 41.6628 35.1061C40.9543 35.065 40.5246 34.553 40.5246 33.8902ZM12.9784 33.8902V32.0068H12.1555V32.4777C11.8813 32.1257 11.4881 31.9291 10.9762 31.9291C9.91565 31.9291 9.09283 32.7519 9.09283 33.8902C9.09283 35.0284 9.91565 35.8512 10.9762 35.8512C11.5247 35.8512 11.9178 35.6547 12.1555 35.3027V35.7735H12.9784V33.8902ZM9.92022 33.8902C9.92022 33.2228 10.3499 32.6742 11.0585 32.6742C11.7259 32.6742 12.1967 33.1862 12.1967 33.8902C12.1967 34.5576 11.7259 35.1061 11.0585 35.1061C10.3499 35.065 9.92022 34.553 9.92022 33.8902Z" fill="#A2A4A7"/>
<path d="M29.1079 3.02148H16.7473V25.2285H29.1079V3.02148Z" fill="#8B8D92"/>
<path d="M17.5702 14.1251C17.5702 9.61328 19.6912 5.60889 22.9459 3.02158C20.5506 1.13823 17.529 0 14.2332 0C6.42553 0 0.108093 6.31743 0.108093 14.1251C0.108093 21.9327 6.42553 28.2502 14.2332 28.2502C17.529 28.2502 20.5506 27.1119 22.9459 25.2286C19.6866 22.6778 17.5702 18.6369 17.5702 14.1251Z" fill="#BABBBE"/>
<path d="M45.7838 14.1251C45.7838 21.9327 39.4663 28.2502 31.6587 28.2502C28.3628 28.2502 25.3412 27.1119 22.9459 25.2286C26.2418 22.6367 28.3217 18.6369 28.3217 14.1251C28.3217 9.61328 26.2006 5.60889 22.9459 3.02158C25.3367 1.13823 28.3583 0 31.6541 0C39.4663 0 45.7838 6.35857 45.7838 14.1251Z" fill="#74767C"/>
</svg>
