<svg width="64" height="18" viewBox="0 0 64 18" fill="none" xmlns="http://www.w3.org/2000/svg">
<path fill-rule="evenodd" clip-rule="evenodd" d="M6.13909 0.656239C6.69932 0.652888 8.3643 0.502931 9.06956 2.88316C9.54462 4.48651 10.3014 7.11287 11.3398 10.7622H11.7627C12.8764 6.91482 13.6414 4.28846 14.0578 2.88316C14.7704 0.478136 16.5519 0.656286 17.2645 0.656286L22.7623 0.656293V17.7586H17.1587V7.67994H16.783L13.6593 17.7586H9.44328L6.31956 7.67247H5.9438V17.7586H0.34021V0.656293L6.13909 0.656239ZM30.809 0.656293V10.7425H31.256L35.0557 2.44868C35.7933 0.798191 37.3654 0.656293 37.3654 0.656293H42.788V17.7587H37.0673V7.67247H36.6203L32.8951 15.9663C32.1575 17.6093 30.511 17.7587 30.511 17.7587H25.0884V0.656293H30.809ZM62.561 8.78346C61.763 11.0447 59.2571 12.6641 56.4827 12.6641H50.4835V17.7587H45.0435V8.78346H62.561Z" fill="#8B8D92"/>
<path fill-rule="evenodd" clip-rule="evenodd" d="M56.7451 0.65625H44.7582C45.0435 4.46382 48.3225 7.72335 51.7169 7.72335H62.939C63.5866 4.55881 61.3572 0.65625 56.7451 0.65625Z" fill="#5D6066"/>
</svg>
