<svg width="64" height="22" viewBox="0 0 64 22" fill="none" xmlns="http://www.w3.org/2000/svg">
<path d="M41.6855 0.446289C37.1413 0.446289 33.0803 2.77253 33.0803 7.07043C33.0803 11.9993 40.2826 12.3397 40.2826 14.8159C40.2826 15.8585 39.0728 16.7918 37.0066 16.7918C34.0742 16.7918 31.8825 15.4877 31.8825 15.4877L30.9447 19.8247C30.9447 19.8247 33.4695 20.9263 36.8215 20.9263C41.7898 20.9263 45.6993 18.4858 45.6993 14.1144C45.6993 8.90619 38.467 8.57587 38.467 6.27761C38.467 5.46088 39.4601 4.566 41.5205 4.566C43.8452 4.566 45.7418 5.51442 45.7418 5.51442L46.6596 1.32556C46.6596 1.32556 44.5959 0.446289 41.6855 0.446289ZM0.110034 0.76243L0 1.39471C0 1.39471 1.91177 1.74027 3.63364 2.42958C5.85068 3.22001 6.00861 3.68016 6.38199 5.10937L10.4508 20.6003H15.905L24.3076 0.76243H18.8659L13.4667 14.2503L11.2635 2.81735C11.0615 1.50886 10.038 0.76243 8.78524 0.76243H0.110034ZM26.4958 0.76243L22.2269 20.6003H27.4161L31.6699 0.76243H26.4958ZM55.4373 0.76243C54.186 0.76243 53.5231 1.42406 53.0366 2.58024L45.4342 20.6003H50.8759L51.9287 17.5969H58.5583L59.1985 20.6003H64L59.8112 0.76243H55.4373ZM56.145 6.12201L57.758 13.5661H53.4367L56.145 6.12201Z" fill="#8B8D92"/>
</svg>
